<?xml version="1.0" standalone="no"?>
<!DOCTYPE svg PUBLIC "-//W3C//DTD SVG 20010904//EN"
 "http://www.w3.org/TR/2001/REC-SVG-20010904/DTD/svg10.dtd">
<svg version="1.0" xmlns="http://www.w3.org/2000/svg"
 width="488.000000pt" height="293.000000pt" viewBox="0 0 488.000000 293.000000"
 preserveAspectRatio="xMidYMid meet">

<g transform="translate(0.000000,293.000000) scale(0.100000,-0.100000)"
fill="#000000" stroke="none">
<path d="M1934 2792 c-313 -191 -583 -460 -773 -774 -30 -48 -61 -90 -70 -93
-9 -4 -115 -41 -236 -82 -274 -92 -374 -128 -450 -163 -33 -15 -115 -51 -183
-80 -67 -29 -122 -57 -122 -62 0 -4 28 -8 63 -8 94 0 268 -18 397 -41 126 -23
300 -68 300 -78 0 -20 -35 -138 -65 -219 -19 -51 -65 -208 -101 -350 l-66
-257 -5 -212 -6 -213 2006 0 2007 0 0 145 0 145 -1970 0 c-1084 0 -1970 2
-1970 5 0 9 198 265 271 349 l74 86 8 -78 c10 -102 30 -160 72 -210 53 -61
105 -82 221 -88 55 -3 117 -2 139 3 l40 9 5 94 5 95 19 -42 c23 -51 89 -117
138 -138 52 -21 171 -29 241 -16 34 6 77 23 103 41 25 16 47 30 50 30 2 0 4
-10 4 -23 0 -13 5 -28 12 -35 17 -17 249 -17 266 0 9 9 12 92 12 310 0 287 1
298 19 298 18 0 19 -11 23 -218 4 -241 8 -258 73 -330 54 -61 107 -77 245 -77
135 1 168 8 179 38 5 13 6 68 2 122 l-6 100 -70 3 c-104 4 -105 6 -105 204 l0
160 84 -7 c103 -9 106 -5 106 120 0 122 -2 125 -105 125 l-85 0 0 100 c0 86
-3 102 -17 107 -18 7 -269 -53 -290 -70 -8 -6 -13 -34 -13 -73 l0 -64 -182 -2
-183 -3 -5 -265 c-3 -182 -9 -272 -17 -286 -7 -12 -31 -29 -53 -38 -35 -14
-45 -14 -73 -3 -62 26 -62 24 -67 321 l-5 271 -70 5 -70 5 3 85 3 85 87 84
c192 184 462 371 757 525 151 79 146 84 -67 60 -90 -9 -179 -19 -198 -20 -19
-1 -42 -5 -50 -8 -40 -16 -426 -73 -437 -64 -9 7 -7 26 7 76 39 139 124 371
181 491 33 68 59 128 59 133 0 15 -16 8 -96 -40z m-647 -1112 c59 -35 82 -125
48 -190 -48 -93 -202 -92 -251 2 -50 97 16 208 126 208 27 0 58 -8 77 -20z
m1413 -231 l0 -99 95 0 95 0 0 -90 0 -90 -95 0 -95 0 0 -186 0 -186 30 -29
c27 -28 35 -30 87 -28 l58 3 3 -92 3 -91 -38 -8 c-59 -12 -204 -9 -246 6 -53
18 -106 67 -131 121 -19 40 -21 68 -24 268 l-4 223 -51 -3 -52 -3 2 -302 1
-303 -114 0 -114 0 -1 38 c0 20 -4 45 -7 55 -7 16 -10 14 -30 -12 -12 -16 -52
-44 -89 -63 -61 -30 -76 -33 -153 -33 -173 1 -267 88 -290 268 -11 83 -13 385
-4 476 l7 62 126 -3 126 -3 5 -260 c5 -282 7 -291 63 -325 58 -36 146 -17 184
38 16 24 19 58 23 287 l5 260 183 3 182 2 0 73 0 73 123 30 c67 17 125 29 130
27 4 -2 7 -49 7 -104z m-1362 -379 c2 -204 5 -276 15 -282 6 -4 40 -8 75 -8
l62 0 0 -114 0 -115 -56 -6 c-106 -14 -214 11 -273 61 -72 62 -75 79 -79 432
l-3 313 128 -3 128 -3 3 -275z m115 51 l47 -45 0 -133 0 -133 -65 0 -65 0 0
191 c0 217 -8 206 83 120z m827 -711 c0 -5 -7 -10 -16 -10 -8 0 -12 5 -9 10 3
6 10 10 16 10 5 0 9 -4 9 -10z m-1330 -79 c0 -31 5 -53 15 -61 26 -21 45 5 45
61 0 37 4 49 15 49 24 0 20 -95 -5 -120 -27 -27 -65 -26 -84 2 -21 30 -22 118
-1 118 11 0 15 -12 15 -49z m213 2 l27 -48 0 48 c0 35 4 47 15 47 12 0 15 -14
15 -70 0 -60 -2 -70 -17 -70 -11 0 -29 19 -45 48 l-27 47 -1 -47 c0 -36 -4
-48 -15 -48 -12 0 -15 14 -15 70 0 61 2 70 18 70 12 0 29 -18 45 -47z m147
-23 c0 -56 -3 -70 -15 -70 -12 0 -15 14 -15 70 0 56 3 70 15 70 12 0 15 -14
15 -70z m96 13 l17 -58 16 58 c11 42 19 57 33 57 16 0 16 -5 -7 -66 -14 -37
-25 -68 -25 -70 0 -2 -8 -4 -18 -4 -14 0 -23 15 -36 58 -10 31 -21 63 -23 70
-3 6 2 12 11 12 10 0 21 -19 32 -57z m214 47 c0 -5 -13 -10 -30 -10 -23 0 -30
-4 -30 -20 0 -15 7 -20 25 -20 14 0 25 -4 25 -10 0 -5 -11 -10 -25 -10 -18 0
-25 -5 -25 -20 0 -16 7 -20 30 -20 17 0 30 -4 30 -10 0 -5 -20 -10 -45 -10
l-45 0 0 70 0 70 45 0 c25 0 45 -4 45 -10z m141 0 c21 -12 25 -40 8 -57 -8 -8
-8 -17 0 -31 15 -28 14 -42 -3 -42 -8 0 -17 11 -20 25 -4 14 -13 25 -21 25 -9
0 -15 -10 -15 -25 0 -16 -6 -25 -15 -25 -12 0 -15 14 -15 70 l0 70 31 0 c17 0
39 -5 50 -10z m156 -5 c2 -6 -9 -11 -23 -10 -39 0 -40 -19 -2 -36 18 -8 34
-21 36 -30 5 -26 -27 -50 -61 -47 -42 4 -47 27 -6 25 41 -2 49 20 13 34 -45
16 -54 38 -28 64 18 17 65 17 71 0z m93 -55 c0 -56 -3 -70 -15 -70 -12 0 -15
14 -15 70 0 56 3 70 15 70 12 0 15 -14 15 -70z m160 60 c0 -5 -9 -10 -20 -10
-18 0 -20 -7 -20 -60 0 -47 -3 -60 -15 -60 -12 0 -15 13 -15 60 0 53 -2 60
-20 60 -11 0 -20 5 -20 10 0 6 25 10 55 10 30 0 55 -4 55 -10z m140 0 c0 -5
-13 -10 -30 -10 -23 0 -30 -4 -30 -20 0 -15 7 -20 25 -20 14 0 25 -4 25 -10 0
-5 -11 -10 -25 -10 -18 0 -25 -5 -25 -20 0 -16 7 -20 30 -20 17 0 30 -4 30
-10 0 -5 -20 -10 -45 -10 l-45 0 0 70 0 70 45 0 c25 0 45 -4 45 -10z m228 -6
c15 -10 22 -25 22 -48 0 -48 -19 -67 -73 -73 l-47 -6 0 72 0 71 38 0 c21 0 48
-7 60 -16z m172 6 c0 -5 -13 -10 -30 -10 -23 0 -30 -4 -30 -20 0 -15 7 -20 25
-20 14 0 25 -4 25 -10 0 -5 -11 -10 -25 -10 -18 0 -25 -5 -25 -20 0 -16 7 -20
30 -20 17 0 30 -4 30 -10 0 -5 -20 -10 -45 -10 l-45 0 0 70 0 70 45 0 c25 0
45 -4 45 -10z m208 -2 c15 -15 16 -48 0 -48 -6 0 -4 -8 6 -19 31 -34 1 -61
-66 -61 -28 0 -28 0 -28 70 l0 70 38 0 c21 0 43 -5 50 -12z m180 -4 c46 -32
16 -124 -41 -124 -38 0 -67 27 -67 64 0 64 57 96 108 60z m114 -41 c3 -50 6
-58 23 -58 17 0 20 8 23 58 2 42 7 57 17 57 22 0 20 -98 -2 -122 -20 -22 -56
-23 -77 -2 -22 21 -23 124 -1 124 10 0 15 -15 17 -57z m219 47 c21 -12 25 -40
8 -57 -8 -8 -8 -17 0 -31 15 -28 14 -42 -3 -42 -8 0 -17 11 -20 25 -4 14 -13
25 -21 25 -9 0 -15 -10 -15 -25 0 -16 -6 -25 -15 -25 -12 0 -15 14 -15 70 l0
70 31 0 c17 0 39 -5 50 -10z m187 -8 c3 -9 -3 -11 -21 -7 -18 5 -31 1 -46 -14
-25 -25 -27 -44 -5 -65 20 -20 54 -21 54 -1 0 8 -4 15 -10 15 -5 0 -10 5 -10
10 0 6 11 10 25 10 21 0 25 -5 25 -29 0 -45 -57 -57 -104 -20 -56 44 -13 123
63 116 14 -1 26 -8 29 -15z m170 2 c46 -32 16 -124 -41 -124 -38 0 -67 27 -67
64 0 64 57 96 108 60z m190 -2 c3 -9 -3 -11 -21 -7 -18 5 -31 1 -46 -14 -25
-25 -27 -44 -5 -65 20 -20 54 -21 54 -1 0 8 -4 15 -10 15 -5 0 -10 5 -10 10 0
6 11 10 25 10 21 0 25 -5 25 -29 0 -45 -57 -57 -104 -20 -56 44 -13 123 63
116 14 -1 26 -8 29 -15z m131 -29 l31 -48 0 48 c0 35 4 47 15 47 12 0 15 -14
15 -70 0 -60 -2 -70 -17 -70 -10 0 -33 22 -50 48 l-33 47 0 -47 c0 -36 -4 -48
-15 -48 -12 0 -15 14 -15 70 0 62 2 70 19 70 11 0 31 -19 50 -47z m201 37 c0
-5 -13 -10 -30 -10 -23 0 -30 -4 -30 -20 0 -15 7 -20 25 -20 14 0 25 -4 25
-10 0 -5 -11 -10 -25 -10 -18 0 -25 -5 -25 -20 0 -16 7 -20 30 -20 17 0 30 -4
30 -10 0 -5 -20 -10 -45 -10 l-45 0 0 70 0 70 45 0 c25 0 45 -4 45 -10z"/>
<path d="M1710 335 c0 -20 4 -26 18 -23 9 2 17 12 17 23 0 11 -8 21 -17 23
-14 3 -18 -3 -18 -23z"/>
<path d="M2470 310 c0 -41 3 -50 18 -50 25 0 42 20 42 50 0 30 -17 50 -42 50
-15 0 -18 -9 -18 -50z"/>
<path d="M2860 340 c0 -15 5 -20 18 -18 9 2 17 10 17 18 0 8 -8 16 -17 18 -13
2 -18 -3 -18 -18z"/>
<path d="M2860 280 c0 -16 5 -21 23 -18 12 2 22 10 22 18 0 8 -10 16 -22 18
-18 3 -23 -2 -23 -18z"/>
<path d="M3032 348 c-17 -17 -15 -63 4 -79 22 -18 48 0 52 35 6 45 -29 71 -56
44z"/>
<path d="M3380 335 c0 -20 4 -26 18 -23 9 2 17 12 17 23 0 11 -8 21 -17 23
-14 3 -18 -3 -18 -23z"/>
<path d="M3722 348 c-17 -17 -15 -63 4 -79 22 -18 48 0 52 35 6 45 -29 71 -56
44z"/>
<path d="M2950 701 c0 -115 2 -131 21 -155 19 -24 26 -26 97 -26 184 -1 183
-1 175 30 -4 16 -14 20 -53 20 -30 0 -52 6 -60 15 -11 13 -4 15 54 15 77 0 85
9 67 71 -19 64 -86 87 -147 50 -36 -22 -59 -78 -50 -117 5 -17 2 -24 -9 -24
-13 0 -15 20 -15 125 l0 125 -40 0 -40 0 0 -129z m224 -17 c30 -12 18 -34 -19
-34 -37 0 -43 8 -23 28 14 14 20 14 42 6z"/>
<path d="M4540 781 c-15 -4 -26 -15 -28 -29 -3 -21 -8 -22 -86 -22 -54 0 -89
-5 -101 -14 -16 -12 -23 -11 -49 5 -38 23 -77 24 -116 4 -57 -29 -48 -94 16
-121 59 -25 41 -49 -24 -32 l-42 10 0 74 0 74 -35 0 -34 0 -3 -71 c-2 -57 -7
-74 -21 -83 -29 -18 -47 17 -47 92 l0 63 -32 -3 c-27 -2 -34 -8 -39 -33 -4
-16 -7 -24 -8 -17 0 6 -10 21 -21 32 -22 22 -87 27 -120 10 -13 -7 -27 -6 -44
2 -19 8 -32 8 -51 0 -15 -7 -27 -8 -30 -2 -4 6 -17 10 -30 10 -23 0 -24 -3
-27 -82 l-3 -83 -47 1 c-55 0 -78 16 -78 55 0 33 34 61 71 57 20 -3 25 2 27
25 3 26 2 27 -43 27 -54 0 -98 -22 -114 -57 -19 -42 -13 -99 13 -130 23 -27
28 -28 135 -31 l111 -4 0 71 c0 60 3 72 20 81 29 16 40 4 40 -41 0 -53 14 -78
55 -95 38 -15 132 -19 154 -5 7 5 25 4 42 -2 21 -9 37 -8 61 1 17 6 36 8 42 3
6 -4 22 -5 36 -1 14 3 42 2 64 -2 46 -10 102 5 116 32 9 17 12 17 39 -11 24
-24 38 -29 76 -29 40 0 52 5 82 35 33 33 35 39 31 85 -3 28 -1 50 3 50 5 0 9
-25 9 -56 0 -30 5 -64 11 -75 23 -44 109 -48 109 -5 0 12 -9 25 -22 31 -19 8
-24 19 -26 58 -3 45 -2 47 22 47 21 0 26 5 26 25 0 20 -5 25 -25 25 -21 0 -25
5 -25 30 0 32 -1 32 -40 21z m-714 -108 c17 -17 16 -18 -15 -21 -40 -4 -48 2
-31 23 16 19 25 19 46 -2z m421 5 c21 -8 33 -19 33 -30 0 -21 -9 -22 -41 -5
-42 22 -49 28 -44 38 8 12 12 11 52 -3z m172 -26 c15 -36 5 -79 -20 -87 -28
-9 -49 12 -49 47 0 66 47 93 69 40z m-515 -67 c5 -14 -4 -15 -61 -13 -42 2
-68 8 -71 16 -6 20 124 17 132 -3z"/>
</g>
</svg>
